<svg width="173" height="41" viewBox="0 0 173 41" fill="none" xmlns="http://www.w3.org/2000/svg">
<path d="M44.8269 25.1569C43.4852 25.1569 42.1839 24.9791 40.9231 24.6235C39.6784 24.2517 38.6761 23.7748 37.9164 23.1929L39.25 20.2347C39.9774 20.7681 40.8422 21.1965 41.8445 21.5198C42.8467 21.8431 43.8489 22.0047 44.8512 22.0047C45.9666 22.0047 46.791 21.8431 47.3244 21.5198C47.8579 21.1803 48.1246 20.7358 48.1246 20.1862C48.1246 19.7821 47.963 19.4507 47.6396 19.192C47.3325 18.9172 46.9284 18.699 46.4273 18.5373C45.9423 18.3757 45.2795 18.1979 44.439 18.0039C43.1458 17.6968 42.0869 17.3896 41.2625 17.0825C40.4381 16.7753 39.7268 16.2823 39.1287 15.6034C38.5468 14.9244 38.2558 14.0192 38.2558 12.8876C38.2558 11.9016 38.5225 11.0125 39.056 10.2204C39.5894 9.41216 40.3896 8.77364 41.4565 8.30485C42.5396 7.83607 43.857 7.60167 45.4089 7.60167C46.4919 7.60167 47.5507 7.73099 48.5853 7.98963C49.6199 8.24827 50.5251 8.62007 51.301 9.10502L50.0887 12.0875C48.5206 11.1984 46.9526 10.7539 45.3846 10.7539C44.2854 10.7539 43.4691 10.9317 42.9356 11.2873C42.4183 11.6429 42.1597 12.1117 42.1597 12.6937C42.1597 13.2756 42.4587 13.7121 43.0569 14.003C43.6711 14.2778 44.6006 14.5527 45.8453 14.8275C47.1385 15.1346 48.1973 15.4417 49.0218 15.7489C49.8462 16.056 50.5494 16.541 51.1313 17.2037C51.7294 17.8665 52.0285 18.7637 52.0285 19.8952C52.0285 20.8651 51.7537 21.7542 51.204 22.5624C50.6706 23.3545 49.8623 23.985 48.7793 24.4538C47.6962 24.9225 46.3788 25.1569 44.8269 25.1569ZM57.9917 11.0933H52.5602V7.89264H67.3512V11.0933H61.9198V24.866H57.9917V11.0933ZM82.607 21.7138V24.866H69.4648V7.89264H82.2918V11.0448H73.3686V14.7305H81.2491V17.7857H73.3686V21.7138H82.607ZM98.8746 21.7138V24.866H85.7324V7.89264H98.5594V11.0448H89.6363V14.7305H97.5168V17.7857H89.6363V21.7138H98.8746ZM102 7.89264H105.928V21.6653H114.439V24.866H102V7.89264ZM122.817 18.1979L120.538 20.5741V24.866H116.634V7.89264H120.538V15.8216L128.055 7.89264H132.419L125.387 15.4579L132.831 24.866H128.249L122.817 18.1979ZM142.187 25.1569C140.425 25.1569 138.833 24.7771 137.41 24.0173C136.004 23.2575 134.897 22.2149 134.088 20.8894C133.296 19.5477 132.9 18.0443 132.9 16.3793C132.9 14.7143 133.296 13.219 134.088 11.8935C134.897 10.5518 136.004 9.50107 137.41 8.74131C138.833 7.98155 140.425 7.60167 142.187 7.60167C143.949 7.60167 145.533 7.98155 146.94 8.74131C148.346 9.50107 149.453 10.5518 150.262 11.8935C151.07 13.219 151.474 14.7143 151.474 16.3793C151.474 18.0443 151.07 19.5477 150.262 20.8894C149.453 22.2149 148.346 23.2575 146.94 24.0173C145.533 24.7771 143.949 25.1569 142.187 25.1569ZM142.187 21.8108C143.189 21.8108 144.095 21.5845 144.903 21.1318C145.711 20.663 146.342 20.0164 146.794 19.192C147.263 18.3676 147.497 17.43 147.497 16.3793C147.497 15.3286 147.263 14.391 146.794 13.5666C146.342 12.7422 145.711 12.1036 144.903 11.651C144.095 11.1822 143.189 10.9478 142.187 10.9478C141.185 10.9478 140.28 11.1822 139.471 11.651C138.663 12.1036 138.025 12.7422 137.556 13.5666C137.103 14.391 136.877 15.3286 136.877 16.3793C136.877 17.43 137.103 18.3676 137.556 19.192C138.025 20.0164 138.663 20.663 139.471 21.1318C140.28 21.5845 141.185 21.8108 142.187 21.8108ZM169.993 7.89264V24.866H166.768L158.306 14.5607V24.866H154.426V7.89264H157.675L166.113 18.1979V7.89264H169.993Z" fill="#515151"/>
<path d="M42.4446 38.4893V36.3433L41.3535 38.1498H41.0261L39.9532 36.3373V38.4893H39.2621V35.2522H40.0562L41.208 37.2769L42.4143 35.2522H43.1236L43.1296 38.4893H42.4446ZM50.8444 36.8889C50.8444 36.9415 50.8403 37.0162 50.8323 37.1132H48.2923C48.3368 37.3516 48.452 37.5416 48.6379 37.683C48.8278 37.8204 49.0622 37.8891 49.341 37.8891C49.6967 37.8891 49.9897 37.7719 50.22 37.5375L50.6262 38.0043C50.4807 38.1781 50.2968 38.3094 50.0745 38.3983C49.8523 38.4872 49.6017 38.5317 49.3228 38.5317C48.9672 38.5317 48.654 38.461 48.3833 38.3195C48.1125 38.1781 47.9023 37.9821 47.7528 37.7315C47.6073 37.4769 47.5346 37.19 47.5346 36.8707C47.5346 36.5555 47.6053 36.2726 47.7468 36.0221C47.8922 35.7675 48.0923 35.5694 48.3469 35.428C48.6015 35.2866 48.8884 35.2158 49.2077 35.2158C49.5229 35.2158 49.8038 35.2866 50.0503 35.428C50.3008 35.5654 50.4948 35.7614 50.6322 36.016C50.7737 36.2666 50.8444 36.5575 50.8444 36.8889ZM49.2077 35.822C48.9652 35.822 48.7591 35.8948 48.5894 36.0402C48.4237 36.1817 48.3226 36.3716 48.2863 36.6101H50.123C50.0907 36.3757 49.9917 36.1857 49.826 36.0402C49.6603 35.8948 49.4542 35.822 49.2077 35.822ZM57.7864 35.8948H56.6528V38.4893H55.8951V35.8948H54.7554V35.2522H57.7864V35.8948ZM63.2098 35.2158C63.6867 35.2158 64.0504 35.331 64.301 35.5614C64.5556 35.7877 64.6829 36.1312 64.6829 36.5919V38.4893H63.9675V38.0952C63.8746 38.2367 63.7412 38.3458 63.5675 38.4226C63.3977 38.4953 63.1916 38.5317 62.9491 38.5317C62.7067 38.5317 62.4945 38.4913 62.3126 38.4105C62.1308 38.3256 61.9893 38.2104 61.8883 38.0649C61.7913 37.9154 61.7428 37.7477 61.7428 37.5618C61.7428 37.2708 61.8499 37.0384 62.0641 36.8647C62.2823 36.6869 62.6238 36.5979 63.0886 36.5979H63.9251V36.5494C63.9251 36.3231 63.8564 36.1494 63.719 36.0281C63.5856 35.9069 63.3856 35.8463 63.1189 35.8463C62.937 35.8463 62.7572 35.8746 62.5794 35.9311C62.4056 35.9877 62.2581 36.0665 62.1369 36.1675L61.8398 35.6159C62.0096 35.4866 62.2136 35.3876 62.4521 35.3189C62.6905 35.2502 62.9431 35.2158 63.2098 35.2158ZM63.1068 37.9801C63.2967 37.9801 63.4644 37.9376 63.6099 37.8528C63.7594 37.7639 63.8645 37.6386 63.9251 37.4769V37.1011H63.1431C62.7067 37.1011 62.4884 37.2445 62.4884 37.5315C62.4884 37.6689 62.543 37.778 62.6521 37.8588C62.7612 37.9396 62.9128 37.9801 63.1068 37.9801ZM72.2219 35.2522V38.4893H71.4642V35.8948H70.2518L70.2215 36.5373C70.2013 36.9657 70.1609 37.3254 70.1003 37.6163C70.0437 37.9033 69.9447 38.1316 69.8032 38.3013C69.6658 38.467 69.4759 38.5499 69.2334 38.5499C69.1202 38.5499 68.9808 38.5276 68.8151 38.4832L68.8515 37.8467C68.9081 37.8588 68.9566 37.8649 68.997 37.8649C69.1506 37.8649 69.2657 37.8043 69.3425 37.683C69.4193 37.5577 69.4678 37.4102 69.488 37.2405C69.5122 37.0667 69.5325 36.8202 69.5486 36.501L69.6032 35.2522H72.2219ZM79.8438 35.2522V38.4893H79.0861V35.8948H77.8737L77.8434 36.5373C77.8232 36.9657 77.7828 37.3254 77.7221 37.6163C77.6656 37.9033 77.5666 38.1316 77.4251 38.3013C77.2877 38.467 77.0978 38.5499 76.8553 38.5499C76.7421 38.5499 76.6027 38.5276 76.437 38.4832L76.4734 37.8467C76.53 37.8588 76.5785 37.8649 76.6189 37.8649C76.7724 37.8649 76.8876 37.8043 76.9644 37.683C77.0412 37.5577 77.0897 37.4102 77.1099 37.2405C77.1341 37.0667 77.1543 36.8202 77.1705 36.501L77.2251 35.2522H79.8438ZM85.9745 38.5317C85.6471 38.5317 85.3521 38.461 85.0894 38.3195C84.8268 38.1781 84.6207 37.9821 84.4711 37.7315C84.3256 37.4769 84.2529 37.19 84.2529 36.8707C84.2529 36.5515 84.3256 36.2666 84.4711 36.016C84.6207 35.7654 84.8268 35.5694 85.0894 35.428C85.3521 35.2866 85.6471 35.2158 85.9745 35.2158C86.3059 35.2158 86.6029 35.2866 86.8656 35.428C87.1283 35.5694 87.3323 35.7654 87.4778 36.016C87.6274 36.2666 87.7021 36.5515 87.7021 36.8707C87.7021 37.19 87.6274 37.4769 87.4778 37.7315C87.3323 37.9821 87.1283 38.1781 86.8656 38.3195C86.6029 38.461 86.3059 38.5317 85.9745 38.5317ZM85.9745 37.8831C86.2533 37.8831 86.4837 37.7901 86.6655 37.6042C86.8474 37.4183 86.9383 37.1738 86.9383 36.8707C86.9383 36.5676 86.8474 36.3231 86.6655 36.1372C86.4837 35.9513 86.2533 35.8584 85.9745 35.8584C85.6956 35.8584 85.4653 35.9513 85.2834 36.1372C85.1056 36.3231 85.0167 36.5676 85.0167 36.8707C85.0167 37.1738 85.1056 37.4183 85.2834 37.6042C85.4653 37.7901 85.6956 37.8831 85.9745 37.8831ZM93.4639 37.192H92.8759V38.4893H92.1181V35.2522H92.8759V36.5616H93.482L94.4398 35.2522H95.2521L94.0761 36.8101L95.3309 38.4893H94.4398L93.4639 37.192ZM100.869 38.5317C100.542 38.5317 100.247 38.461 99.984 38.3195C99.7213 38.1781 99.5152 37.9821 99.3656 37.7315C99.2202 37.4769 99.1474 37.19 99.1474 36.8707C99.1474 36.5515 99.2202 36.2666 99.3656 36.016C99.5152 35.7654 99.7213 35.5694 99.984 35.428C100.247 35.2866 100.542 35.2158 100.869 35.2158C101.2 35.2158 101.497 35.2866 101.76 35.428C102.023 35.5694 102.227 35.7654 102.372 36.016C102.522 36.2666 102.597 36.5515 102.597 36.8707C102.597 37.19 102.522 37.4769 102.372 37.7315C102.227 37.9821 102.023 38.1781 101.76 38.3195C101.497 38.461 101.2 38.5317 100.869 38.5317ZM100.869 37.8831C101.148 37.8831 101.378 37.7901 101.56 37.6042C101.742 37.4183 101.833 37.1738 101.833 36.8707C101.833 36.5676 101.742 36.3231 101.56 36.1372C101.378 35.9513 101.148 35.8584 100.869 35.8584C100.59 35.8584 100.36 35.9513 100.178 36.1372C100 36.3231 99.9112 36.5676 99.9112 36.8707C99.9112 37.1738 100 37.4183 100.178 37.6042C100.36 37.7901 100.59 37.8831 100.869 37.8831ZM107.013 35.2522H107.77V36.5676H109.401V35.2522H110.159V38.4893H109.401V37.2102H107.77V38.4893H107.013V35.2522ZM116.315 38.5317C115.979 38.5317 115.678 38.461 115.412 38.3195C115.145 38.1781 114.937 37.9821 114.787 37.7315C114.638 37.4769 114.563 37.19 114.563 36.8707C114.563 36.5515 114.638 36.2666 114.787 36.016C114.937 35.7654 115.143 35.5694 115.405 35.428C115.672 35.2866 115.975 35.2158 116.315 35.2158C116.634 35.2158 116.913 35.2805 117.151 35.4098C117.394 35.5391 117.576 35.725 117.697 35.9675L117.115 36.307C117.022 36.1574 116.905 36.0463 116.763 35.9736C116.626 35.8968 116.474 35.8584 116.309 35.8584C116.026 35.8584 115.791 35.9513 115.606 36.1372C115.42 36.3191 115.327 36.5636 115.327 36.8707C115.327 37.1779 115.418 37.4244 115.599 37.6103C115.785 37.7921 116.022 37.8831 116.309 37.8831C116.474 37.8831 116.626 37.8467 116.763 37.774C116.905 37.6972 117.022 37.584 117.115 37.4345L117.697 37.774C117.572 38.0164 117.388 38.2043 117.145 38.3377C116.907 38.467 116.63 38.5317 116.315 38.5317ZM124.566 35.8948H123.432V38.4893H122.675V35.8948H121.535V35.2522H124.566V35.8948ZM130.577 35.2158C130.893 35.2158 131.174 35.2845 131.42 35.4219C131.671 35.5593 131.867 35.7533 132.008 36.0039C132.15 36.2544 132.22 36.5434 132.22 36.8707C132.22 37.1981 132.15 37.489 132.008 37.7436C131.867 37.9942 131.671 38.1882 131.42 38.3256C131.174 38.463 130.893 38.5317 130.577 38.5317C130.141 38.5317 129.795 38.3862 129.541 38.0952V39.6653H128.783V35.2522H129.505V35.6765C129.63 35.523 129.783 35.4078 129.965 35.331C130.151 35.2542 130.355 35.2158 130.577 35.2158ZM130.493 37.8831C130.771 37.8831 131 37.7901 131.178 37.6042C131.359 37.4183 131.45 37.1738 131.45 36.8707C131.45 36.5676 131.359 36.3231 131.178 36.1372C131 35.9513 130.771 35.8584 130.493 35.8584C130.311 35.8584 130.147 35.9008 130.002 35.9857C129.856 36.0665 129.741 36.1837 129.656 36.3373C129.571 36.4909 129.529 36.6687 129.529 36.8707C129.529 37.0728 129.571 37.2506 129.656 37.4042C129.741 37.5577 129.856 37.677 130.002 37.7618C130.147 37.8427 130.311 37.8831 130.493 37.8831ZM139.608 35.2522L138.093 38.7499C137.951 39.1015 137.78 39.348 137.577 39.4895C137.375 39.635 137.131 39.7077 136.844 39.7077C136.682 39.7077 136.523 39.6814 136.365 39.6289C136.208 39.5764 136.078 39.5036 135.977 39.4107L136.28 38.853C136.353 38.9217 136.438 38.9762 136.535 39.0166C136.636 39.0571 136.737 39.0773 136.838 39.0773C136.971 39.0773 137.08 39.0429 137.165 38.9742C137.254 38.9055 137.335 38.7903 137.408 38.6287L137.462 38.5014L136.05 35.2522H136.838L137.856 37.6467L138.881 35.2522H139.608ZM145.148 37.192H144.56V38.4893H143.802V35.2522H144.56V36.5616H145.166L146.124 35.2522H146.936L145.76 36.8101L147.015 38.4893H146.124L145.148 37.192ZM154.769 37.8467V39.2349H154.06V38.4893H151.217V35.2522H151.974V37.8467H153.52V35.2522H154.278V37.8467H154.769ZM159.111 35.2522H159.869V37.386L161.657 35.2522H162.348V38.4893H161.59V36.3555L159.808 38.4893H159.111V35.2522ZM167.035 35.2522H167.792V37.386L169.581 35.2522H170.272V38.4893H169.514V36.3555L167.732 38.4893H167.035V35.2522Z" fill="#515151"/>
<path d="M31.1755 38.5307H30.5693V7.96141H0.606174V24.9347H0V7.35522H31.1755V38.5307Z" fill="#4A9DF7"/>
<path d="M28.5775 38.5309H27.9713V10.5596H3.20414V24.9349H2.59796V9.95337H28.5775V38.5309Z" fill="#4A9DF7"/>
<path d="M25.8929 38.5308H25.2867V13.2441H5.88864V24.9349H5.28247V12.5513H25.8929V38.5308Z" fill="#4A9DF7"/>
<path d="M23.295 38.5309H22.6888V15.842H8.48667V24.8483H7.88049V15.2358H23.295V38.5309Z" fill="#4A9DF7"/>
<path d="M20.6971 38.5308H20.0043V18.4399H11.1712V24.9348H10.4785V17.8337H20.6971V38.5308Z" fill="#4A9DF7"/>
<path d="M20.0909 24.7615H0V25.3677H20.0909V24.7615Z" fill="#515151"/>
<path d="M20.0909 27.3594H0V27.9656H20.0909V27.3594Z" fill="#515151"/>
<path d="M20.0909 30.0439H0V30.6501H20.0909V30.0439Z" fill="#515151"/>
<path d="M20.0909 32.6418H0V33.248H20.0909V32.6418Z" fill="#515151"/>
<path d="M20.0909 35.3264H0V35.9326H20.0909V35.3264Z" fill="#515151"/>
<path d="M20.0909 37.9246H0V38.5307H20.0909V37.9246Z" fill="#515151"/>
<path d="M79.6707 30.0442H38.8828V30.737H79.6707V30.0442Z" fill="#4A9DF7"/>
<path d="M171.379 30.7368H83.8274V30.044L171.379 29.7842V30.7368Z" fill="#515151"/>
</svg>
