<svg width="24" height="25" viewBox="0 0 24 25" fill="none" xmlns="http://www.w3.org/2000/svg">
<path fill-rule="evenodd" clip-rule="evenodd" d="M12 2.1416C8.13 2.1416 5 5.2716 5 9.1416C5 14.3916 12 22.1416 12 22.1416C12 22.1416 19 14.3916 19 9.1416C19 5.2716 15.87 2.1416 12 2.1416ZM7 9.1416C7 6.3816 9.24 4.1416 12 4.1416C14.76 4.1416 17 6.3816 17 9.1416C17 12.0216 14.12 16.3316 12 19.0216C9.92 16.3516 7 11.9916 7 9.1416ZM9.5 9.1416C9.5 7.76089 10.6193 6.6416 12 6.6416C12.8932 6.6416 13.7185 7.1181 14.1651 7.8916C14.6116 8.6651 14.6116 9.6181 14.1651 10.3916C13.7185 11.1651 12.8932 11.6416 12 11.6416C10.6193 11.6416 9.5 10.5223 9.5 9.1416Z" fill="#00529E"/>
</svg>
